<!-- Sidebar Icon -->
<?xml version="1.0"?>
<svg fill="currentColor" viewBox="0 0 20 20" aria-label="Sidebar Icon" data-icon="sidebar" class="inline-block" style="width: 24px; min-width: 24px; height: 24px; min-height: 24px; display: block;">
    <path d="M15.4232 15.9107H4.58316C3.8951 15.9107 3.3759 15.7355 3.02554 15.3851C2.67518 15.039 2.5 14.5282 2.5 13.8528V6.14706C2.5 5.46745 2.67518 4.95458 3.02554 4.60844C3.3759 4.2623 3.8951 4.08923 4.58316 4.08923H15.4232C16.107 4.08923 16.6241 4.2623 16.9745 4.60844C17.3248 4.95458 17.5 5.46745 17.5 6.14706V13.8528C17.5 14.5282 17.3248 15.039 16.9745 15.3851C16.6241 15.7355 16.107 15.9107 15.4232 15.9107ZM15.3472 14.6633C15.6427 14.6633 15.8685 14.5873 16.0247 14.4354C16.1767 14.2834 16.2526 14.0534 16.2526 13.7452V6.24837C16.2526 5.94445 16.1767 5.7165 16.0247 5.56454C15.8685 5.41258 15.6427 5.3366 15.3472 5.3366H4.65281C4.36155 5.3366 4.13782 5.41258 3.98164 5.56454C3.82545 5.7165 3.74736 5.94445 3.74736 6.24837V13.7452C3.74736 14.0534 3.82545 14.2834 3.98164 14.4354C4.13782 14.5873 4.36155 14.6633 4.65281 14.6633H15.3472ZM12.4662 14.8659H11.2822V5.12131H12.4662V14.8659ZM13.7073 7.65403C13.5933 7.65403 13.4962 7.61182 13.416 7.52739C13.3316 7.44297 13.2894 7.3501 13.2894 7.24879C13.2894 7.13904 13.3316 7.04407 13.416 6.96386C13.4962 6.88366 13.5933 6.84356 13.7073 6.84356H15.0053C15.115 6.84356 15.2121 6.88366 15.2965 6.96386C15.3767 7.04407 15.4168 7.13904 15.4168 7.24879C15.4168 7.3501 15.3767 7.44297 15.2965 7.52739C15.2121 7.61182 15.115 7.65403 15.0053 7.65403H13.7073ZM13.7073 9.35095C13.5933 9.35095 13.4962 9.31085 13.416 9.23064C13.3316 9.14622 13.2894 9.04913 13.2894 8.93938C13.2894 8.83385 13.3316 8.74099 13.416 8.66078C13.4962 8.58058 13.5933 8.54048 13.7073 8.54048H15.0053C15.115 8.54048 15.2121 8.58058 15.2965 8.66078C15.3767 8.74099 15.4168 8.83385 15.4168 8.93938C15.4168 9.04913 15.3767 9.14622 15.2965 9.23064C15.2121 9.31085 15.115 9.35095 15.0053 9.35095H13.7073ZM13.7073 11.0415C13.5933 11.0415 13.4962 11.0014 13.416 10.9212C13.3316 10.841 13.2894 10.7482 13.2894 10.6426C13.2894 10.5329 13.3316 10.4379 13.416 10.3577C13.4962 10.2775 13.5933 10.2374 13.7073 10.2374H15.0053C15.115 10.2374 15.2121 10.2775 15.2965 10.3577C15.3767 10.4379 15.4168 10.5329 15.4168 10.6426C15.4168 10.7482 15.3767 10.841 15.2965 10.9212C15.2121 11.0014 15.115 11.0415 15.0053 11.0415H13.7073Z"></path>
</svg>
