<!-- Hashtag Icon -->
<?xml version="1.0"?>
<svg fill="currentColor" aria-label="Hashtag Icon" viewBox="0 0 24 24" data-icon="number" class="inline-block mr-2" style="width: 20px; min-width: 20px; height: 20px; min-height: 20px;">
    <path d="M7.32075 21C7.88901 21 8.22937 20.7087 8.34184 20.1262L11.4317 4.19571C11.4377 4.15892 11.4465 4.10986 11.4584 4.04854C11.4702 3.98109 11.4761 3.91364 11.4761 3.84619C11.4761 3.58866 11.3933 3.38324 11.2275 3.22994C11.0618 3.07665 10.8487 3 10.5882 3C10.2863 3 10.0555 3.07971 9.89567 3.23914C9.73585 3.39857 9.6293 3.61932 9.57603 3.90138L6.48613 19.8135C6.47429 19.8687 6.46541 19.9269 6.45949 19.9882C6.45357 20.0557 6.45061 20.1139 6.45061 20.163C6.45061 20.4267 6.53052 20.6321 6.69034 20.7793C6.85017 20.9264 7.0603 21 7.32075 21ZM13.1099 21C13.6781 21 14.0185 20.7087 14.131 20.1262L17.2209 4.19571C17.2327 4.15892 17.2416 4.10986 17.2475 4.04854C17.2534 3.98109 17.2564 3.91364 17.2564 3.84619C17.2564 3.58866 17.1735 3.38324 17.0078 3.22994C16.842 3.07665 16.6319 3 16.3774 3C16.0696 3 15.8387 3.07971 15.6848 3.23914C15.5309 3.39857 15.4243 3.61932 15.3651 3.90138L12.2752 19.8135C12.2634 19.8687 12.2545 19.9269 12.2486 19.9882C12.2427 20.0557 12.2397 20.1139 12.2397 20.163C12.2397 20.4267 12.3196 20.6321 12.4795 20.7793C12.6393 20.9264 12.8494 21 13.1099 21ZM6.01554 9.59479H18.9612C19.2749 9.59479 19.5265 9.49668 19.7159 9.30046C19.9053 9.10424 20 8.85284 20 8.54624C20 8.29484 19.923 8.08636 19.7691 7.9208C19.6152 7.75524 19.411 7.67246 19.1565 7.67246H6.21088C5.90307 7.67246 5.6515 7.77363 5.45616 7.97598C5.26674 8.1722 5.17203 8.42974 5.17203 8.74859C5.17203 9 5.24898 9.20542 5.40289 9.36484C5.56271 9.51814 5.76693 9.59479 6.01554 9.59479ZM4.84351 15.9228H17.7802C18.094 15.9228 18.3455 15.8278 18.535 15.6377C18.7244 15.4415 18.8191 15.187 18.8191 14.8743C18.8191 14.629 18.7421 14.4236 18.5882 14.258C18.4343 14.0864 18.2331 14.0005 17.9845 14.0005H5.02997C4.72216 14.0005 4.47355 14.1017 4.28413 14.304C4.09471 14.5003 4 14.7578 4 15.0766C4 15.3281 4.07399 15.5335 4.22198 15.6929C4.37588 15.8462 4.58306 15.9228 4.84351 15.9228Z" fill="#57575C"></path>
</svg>
